<?xml version="1.0" standalone="no"?>
<!DOCTYPE svg PUBLIC "-//W3C//DTD SVG 20010904//EN"
 "http://www.w3.org/TR/2001/REC-SVG-20010904/DTD/svg10.dtd">
<svg version="1.0" xmlns="http://www.w3.org/2000/svg"
 width="256.000000pt" height="256.000000pt" viewBox="0 0 256.000000 256.000000"
 preserveAspectRatio="xMidYMid meet">

<g transform="translate(0.000000,256.000000) scale(0.100000,-0.100000)"
fill="#000000" stroke="none">
<path d="M696 1708 c-11 -6 -33 -13 -50 -15 -51 -5 -81 -34 -82 -79 -1 -21 -7
-61 -14 -89 -6 -27 -13 -59 -15 -70 -2 -11 -4 -22 -6 -25 -2 -5 -4 -22 -7 -67
-2 -16 -7 -20 -22 -16 -29 8 -65 -4 -99 -33 -32 -27 -41 -54 -17 -54 27 0 36
-29 45 -135 7 -100 10 -110 35 -132 32 -27 103 -32 112 -8 4 8 12 15 19 15 7
0 15 6 18 14 5 12 10 174 8 241 0 11 -1 103 -2 204 -1 147 1 185 12 191 8 4
43 15 79 24 67 17 100 36 65 36 -11 0 -29 2 -40 5 -11 3 -29 0 -39 -7z m-179
-430 c-3 -7 -5 -2 -5 12 0 14 2 19 5 13 2 -7 2 -19 0 -25z"/>
<path d="M1340 1607 c-43 -22 -53 -60 -58 -217 -5 -168 7 -250 44 -286 30 -31
36 -30 77 6 45 39 75 104 57 125 -16 19 -57 19 -92 1 -15 -8 -29 -12 -32 -8
-8 8 -6 207 3 270 9 61 28 90 37 54 7 -26 39 -30 48 -5 8 19 -23 67 -45 70 -8
2 -25 -3 -39 -10z m43 -418 c16 2 17 -1 8 -18 -11 -20 -30 -36 -36 -29 -2 1
-7 16 -11 32 -6 23 -4 27 7 20 8 -5 22 -7 32 -5z"/>
<path d="M1093 1598 c-5 -7 -22 -34 -37 -61 -15 -26 -31 -45 -35 -42 -5 2 -26
27 -47 55 -36 47 -73 65 -75 38 -2 -24 1 -162 7 -330 6 -160 8 -168 27 -168
20 0 20 4 15 211 l-6 212 40 -47 c22 -25 44 -46 48 -46 5 0 21 17 34 37 l26
37 2 -199 c3 -192 4 -200 23 -200 18 0 20 8 23 90 1 50 -1 164 -5 254 -8 160
-15 191 -40 159z"/>
<path d="M1505 1588 c-3 -7 -4 -124 -3 -258 l3 -245 73 1 c78 0 104 12 83 38
-9 11 -25 13 -62 9 l-49 -6 -2 234 c-3 214 -5 234 -21 237 -9 2 -19 -3 -22
-10z"/>
<path d="M1933 1576 c-40 -35 -37 -93 11 -216 42 -106 56 -191 36 -215 -18
-22 -33 -18 -27 7 4 12 1 28 -5 35 -9 11 -14 11 -29 -3 -42 -38 -4 -112 49
-99 38 9 50 22 63 65 14 46 2 107 -46 237 -37 98 -42 132 -23 151 21 21 30 13
24 -22 -7 -36 11 -55 33 -33 15 15 14 90 -1 105 -19 19 -55 14 -85 -12z"/>
<path d="M2098 1570 c-27 -28 -30 -36 -26 -78 3 -26 21 -87 41 -137 42 -104
55 -172 37 -204 -15 -29 -36 -21 -32 11 2 15 -1 29 -7 32 -16 10 -41 -23 -41
-54 0 -35 38 -65 70 -55 74 23 80 110 20 274 -43 116 -50 175 -24 185 24 9 25
8 19 -28 -4 -19 -2 -36 3 -40 17 -10 42 23 42 55 0 73 -49 91 -102 39z"/>
<path d="M736 1568 c-17 -27 -32 -149 -41 -333 -7 -141 -3 -165 26 -165 16 0
19 7 19 44 0 39 3 45 32 59 18 9 34 15 35 13 1 -1 6 -27 10 -57 6 -37 13 -55
24 -57 9 -2 19 3 21 10 5 13 -21 258 -41 393 -6 39 -11 73 -11 77 0 12 -31 38
-45 38 -8 0 -21 -10 -29 -22z m48 -161 c17 -117 20 -177 9 -177 -5 0 -19 -3
-32 -7 l-24 -6 7 89 c10 133 18 215 21 212 2 -2 10 -52 19 -111z"/>
<path d="M1753 1582 c-6 -4 -17 -20 -23 -36 -13 -36 -30 -231 -30 -364 0 -85
3 -104 16 -109 21 -8 34 13 34 54 0 22 6 36 19 43 36 19 51 12 51 -22 0 -48
10 -78 26 -78 25 0 26 25 9 177 -36 319 -51 367 -102 335z m51 -289 c6 -52 4
-63 -8 -63 -8 0 -22 -3 -32 -7 -16 -6 -17 3 -11 126 4 73 10 138 14 145 7 11
23 -78 37 -201z"/>
<path d="M895 1030 c-6 -11 -45 -183 -45 -202 0 -22 20 -4 28 25 4 17 15 32
22 32 8 0 18 -15 24 -32 9 -32 26 -45 26 -20 0 18 -39 200 -44 204 -2 3 -7 -1
-11 -7z m11 -117 c-11 -11 -17 4 -9 23 7 18 8 18 11 1 2 -10 1 -21 -2 -24z"/>
<path d="M1234 1027 c-10 -28 1 -200 14 -205 8 -2 12 11 12 47 0 39 4 51 15
51 8 0 15 5 15 10 0 6 -7 10 -15 10 -10 0 -15 11 -15 35 0 28 4 35 19 35 26 0
35 16 15 24 -26 10 -54 7 -60 -7z"/>
<path d="M1466 1024 c-23 -23 -20 -61 9 -98 14 -19 25 -46 25 -64 0 -38 -12
-41 -33 -9 -8 12 -18 19 -22 15 -10 -10 22 -58 39 -58 20 0 46 34 46 61 0 13
-14 42 -30 63 -32 43 -35 53 -20 76 9 13 11 13 19 0 6 -8 13 -11 17 -7 7 7
-14 37 -27 37 -4 0 -15 -7 -23 -16z"/>
<path d="M1819 973 l0 -68 -29 63 c-16 34 -34 62 -40 62 -6 0 -10 -39 -10
-106 0 -80 3 -105 13 -102 7 3 14 29 17 64 l5 59 27 -64 c16 -36 32 -60 38
-56 11 7 14 172 4 199 -13 35 -24 13 -25 -51z"/>
<path d="M800 935 c0 -52 -4 -95 -8 -95 -5 0 -15 12 -22 28 -14 27 -14 27 -18
4 -2 -13 -1 -30 2 -38 8 -21 54 -17 66 5 11 22 13 111 4 160 -12 61 -24 30
-24 -64z"/>
<path d="M975 1020 c3 -5 17 -10 30 -10 l24 0 -30 -82 c-16 -44 -29 -87 -29
-95 0 -9 14 -13 48 -11 36 1 39 2 15 5 -18 2 -33 9 -33 14 0 6 14 49 30 96 17
46 30 86 30 89 0 2 -21 4 -46 4 -27 0 -43 -4 -39 -10z"/>
<path d="M1080 1020 c0 -5 11 -10 25 -10 14 0 25 -2 25 -5 0 -2 -13 -41 -30
-87 -16 -45 -30 -85 -30 -90 0 -4 21 -7 48 -6 36 1 39 2 15 5 -18 2 -33 7 -33
9 0 3 14 44 30 91 17 46 30 89 30 94 0 5 -18 9 -40 9 -22 0 -40 -4 -40 -10z"/>
<path d="M1330 942 c0 -90 14 -132 45 -132 8 0 21 10 29 22 21 29 23 202 4
195 -8 -2 -12 -18 -11 -38 3 -57 -8 -159 -17 -159 -15 0 -30 71 -30 138 0 34
-4 62 -10 62 -6 0 -10 -36 -10 -88z"/>
<path d="M1560 925 c0 -63 4 -105 10 -105 6 0 10 42 10 105 0 63 -4 105 -10
105 -6 0 -10 -42 -10 -105z"/>
<path d="M1629 1008 c-7 -13 -13 -53 -13 -90 -1 -57 2 -71 22 -90 l22 -22 23
22 c19 20 22 33 21 97 0 77 -12 105 -45 105 -10 0 -24 -10 -30 -22z m45 -20
c9 -35 7 -131 -4 -148 -13 -21 -30 29 -30 90 0 74 20 108 34 58z"/>
<path d="M620 910 c0 -5 14 -10 30 -10 17 0 30 5 30 10 0 6 -13 10 -30 10 -16
0 -30 -4 -30 -10z"/>
<path d="M1920 910 c0 -5 16 -10 36 -10 21 0 33 4 29 10 -3 6 -19 10 -36 10
-16 0 -29 -4 -29 -10z"/>
</g>
</svg>
